#!OML:ASF X:\für Bonn\!DataBase\2005_08_12_Daniel\c3d\Daniel.ASF
:FULLY-SPECIFIED
:DEGREES
201
root 1.74603 17.2581 16.7823 353.009 -254.507 717.067
lowerback 6.27495 -5.9854 -0.260337
upperback 0.682083 -8.04895 -3.18775
thorax -3.21465 -4.00306 -2.40139
lowerneck 9.06785 6.26535 9.53148
upperneck 11.4874 10.4084 -9.89551
head 2.94785 5.57041 -4.50435
rclavicle 4.07012e-014 1.59028e-015
rhumerus -35.3791 -17.9806 -27.4366
rradius 121.295
rwrist -38.625
rhand -6.19973 16.6052
rfingers 7.12502
rthumb 19.6403 -12.4226
lclavicle 4.07012e-014 1.59028e-015
lhumerus -43.8541 41.1441 62.1152
lradius 24.7704
lwrist -29.635
lhand -9.51464 -6.43764
lfingers 7.12502
lthumb 16.451 22.8848
rfemur 6.74299 6.80258 17.3599
rtibia 25.3025
rfoot -43.5671 -30.8715
rtoes -9.33958
lfemur -15.619 17.28 -18.5875
ltibia 46.186
lfoot -27.342 14.0146
ltoes -5.10249
202
root 1.75727 17.2528 16.6999 353.105 -253.828 717.197
lowerback 6.23038 -5.96587 -0.25441
upperback 0.704762 -8.01998 -3.16224
thorax -3.16208 -3.98859 -2.38777
lowerneck 9.32084 6.76036 9.79285
upperneck 11.4465 11.1552 -10.1158
head 2.99804 5.95823 -4.60244
rclavicle 5.97348e-014 -2.38542e-014
rhumerus -36.4082 -16.4019 -28.9795
rradius 122.109
rwrist -39.4934
rhand -5.84937 17.0841
rfingers 7.12502
rthumb 19.9772 -11.909
lclavicle 5.97348e-014 -2.38542e-014
lhumerus -43.9794 41.3551 61.9613
lradius 24.5172
lwrist -30.0355
lhand -9.31812 -6.40758
lfingers 7.12502
lthumb 16.6402 22.8991
rfemur 6.8947 5.40133 16.6619
rtibia 25.3098
rfoot -42.5381 -30.4963
rtoes -10.1761
lfemur -15.4555 16.6862 -18.9153
ltibia 46.1116
lfoot -27.6138 13.8596
ltoes -4.56843
203
root 1.76843 17.2496 16.6158 353.197 -253.113 717.323
lowerback 6.18224 -5.96439 -0.239754
upperback 0.73388 -8.01426 -3.13818
thorax -3.10335 -3.98579 -2.37884
lowerneck 9.53308 7.24462 10.0124
upperneck 11.4333 11.8823 -10.3047
head 3.06073 6.33402 -4.68079
rclavicle 3.45637e-014 -3.18055e-014
rhumerus -37.4764 -14.8224 -30.6362
rradius 122.888
rwrist -40.4263
rhand -5.41646 17.3676
rfingers 7.12502
rthumb 20.3932 -11.5816
lclavicle 3.45637e-014 -3.18055e-014
lhumerus -44.096 41.5681 61.7959
lradius 24.2635
lwrist -30.4519
lhand -9.15444 -6.35363
lfingers 7.12502
lthumb 16.7978 22.9398
rfemur 7.05177 4.07996 15.9843
rtibia 25.3442
rfoot -41.5878 -30.1844
rtoes -11.0067
lfemur -15.2857 16.1013 -19.2457
ltibia 46.0097
lfoot -27.8424 13.6788
ltoes -3.90781
204
root 1.78136 17.2482 16.5277 353.297 -252.404 717.434
lowerback 6.08519 -5.94602 -0.195732
upperback 0.76061 -7.98379 -3.12143
thorax -3.02383 -3.97136 -2.40077
lowerneck 9.70771 7.69315 10.2581
upperneck 11.4521 12.566 -10.4997
head 3.13931 6.68814 -4.76217
rclavicle -1.72321e-014 1.27222e-014
rhumerus -38.5416 -13.2833 -32.4069
rradius 123.549
rwrist -41.387
rhand -4.87482 17.4412
rfingers 7.12502
rthumb 20.9137 -11.4515
lclavicle -1.72321e-014 1.27222e-014
lhumerus -44.1834 41.7549 61.6479
lradius 23.9685
lwrist -30.9597
lhand -9.09148 -6.31268
lfingers 7.12502
lthumb 16.8584 22.9755
rfemur 7.17758 2.82813 15.2998
rtibia 25.4216
rfoot -40.6344 -29.9157
rtoes -11.8802
lfemur -15.1121 15.5442 -19.5937
ltibia 45.8627
lfoot -28.0196 13.5044
ltoes -3.42138
205
root 1.79424 17.2481 16.434 353.344 -251.665 717.506
lowerback 5.99866 -5.94409 -0.128795
upperback 0.79179 -7.97414 -3.11156
thorax -2.95065 -3.96752 -2.4392
lowerneck 9.84878 8.13169 10.4584
upperneck 11.4955 13.2299 -10.6559
head 3.22643 7.03024 -4.82099
rclavicle 1.35422e-014 -3.97569e-015
rhumerus -39.5494 -11.7719 -34.3656
rradius 124.072
rwrist -42.2697
rhand -4.3186 17.3491
rfingers 7.12502
rthumb 21.448 -11.4836
lclavicle 1.35422e-014 -3.97569e-015
lhumerus -44.2422 41.891 61.5504
lradius 23.6719
lwrist -31.3987
lhand -9.09437 -6.23885
lfingers 7.12502
lthumb 16.8556 23.0496
rfemur 7.31056 1.62045 14.5899
rtibia 25.5507
rfoot -39.6915 -29.6822
rtoes -12.7526
lfemur -14.8831 14.9455 -19.9667
ltibia 45.6715
lfoot -28.198 13.3439
ltoes -2.80449
